# xmcd CD database file
#
# Track frame offsets:
#	150
#	15853
#	35606
#	55333
#	79688
#	96584
#	112654
#	129531
#	151873
#	175602
#	192753
#	214022
#	231431
#	249958
#	266931
#	284123
#	302159
#
# Disc length: 4263 seconds
#
# Revision: 0
# Processed by: cddbd v1.5.2PL0 Copyright (c) Steve Scherf et al.
# Submitted via: CDex 1.70beta2
#
DISCID=e510a511
DTITLE=Various Artist - Top Hits USA RJ48
DYEAR=2007
DGENRE=Jazz
TTITLE0=Paul Hardcastle - Lucky Star
TTITLE1=Jimmy Sommers - Happy Hour
TTITLE2=Everette Harp - Old School
TTITLE3=Blake Aaron - Bumpin On The Wes Side
TTITLE4=Darren Rahn - Breakin Out
TTITLE5=Hiroshima - Red Beans And RIce
TTITLE6=Soul Ballet - Smooth Vegas
TTITLE7=Omar Akram - Run Away With Me
TTITLE8=Michael Manson - Coming Right At Ya
TTITLE9=Jeff Kashiwa - Fall
TTITLE10=Mike Catalano - Thinking Of You
TTITLE11=Dave Sereny - Give It To Me Baby
TTITLE12=U-Nam - Keep The Faith (Radio Edit)
TTITLE13=Will Donato - Tropica
TTITLE14=Jaared - Your Smile (Radio Edit)
TTITLE15=David Wells - Deck The Halls
TTITLE16=Andre Deland - Jolly Old Saint Nicholas
EXTD=YEAR: 2007
EXTT0=
EXTT1=
EXTT2=
EXTT3=
EXTT4=
EXTT5=
EXTT6=
EXTT7=
EXTT8=
EXTT9=
EXTT10=
EXTT11=
EXTT12=
EXTT13=
EXTT14=
EXTT15=
EXTT16=
PLAYORDER=
